<?xml version="1.0" standalone="no"?>
<!DOCTYPE svg PUBLIC "-//W3C//DTD SVG 20010904//EN"
 "http://www.w3.org/TR/2001/REC-SVG-20010904/DTD/svg10.dtd">
<svg version="1.0" xmlns="http://www.w3.org/2000/svg"
 width="512.000000pt" height="512.000000pt" viewBox="0 0 512.000000 512.000000"
 preserveAspectRatio="xMidYMid meet">
<metadata>
Created by potrace 1.11, written by Peter Selinger 2001-2013
</metadata>
<g transform="translate(0.000000,512.000000) scale(0.100000,-0.100000)"
fill="#000000" stroke="none">
<path d="M431 4163 c-145 -29 -298 -146 -367 -278 -66 -126 -64 -73 -64 -1320
0 -1225 -1 -1189 55 -1308 14 -30 34 -63 43 -73 10 -11 25 -30 34 -43 24 -34
113 -105 162 -130 123 -60 0 -56 1581 -58 1580 -2 1483 -5 1614 59 82 40 189
144 230 225 57 114 64 157 67 403 1 124 2 227 3 229 1 2 7 -1 14 -6 6 -6 192
-108 412 -228 220 -120 418 -228 440 -240 294 -161 327 -177 359 -177 42 0 82
27 96 66 7 20 10 439 10 1283 0 1160 -1 1257 -17 1284 -18 30 -58 52 -97 52
-20 0 -111 -47 -341 -173 -27 -15 -75 -41 -105 -58 -30 -16 -149 -81 -265
-144 -295 -161 -341 -187 -415 -226 -36 -19 -71 -39 -77 -45 -16 -12 -15 -31
-18 228 -1 168 -6 235 -19 285 -45 175 -187 324 -361 381 l-70 22 -1420 2
c-1129 1 -1433 -2 -1484 -12z m2907 -220 c103 -33 198 -135 220 -237 5 -23 9
-537 10 -1143 0 -1189 2 -1162 -52 -1243 -48 -73 -126 -128 -206 -145 -19 -4
-663 -8 -1430 -7 -1518 0 -1425 -3 -1517 55 -68 43 -126 132 -139 213 -4 22
-7 533 -7 1136 0 879 3 1106 13 1145 32 114 125 206 237 232 21 5 651 9 1428
10 1270 1 1395 -1 1443 -16z m1565 -1383 c0 -572 -2 -1042 -4 -1045 -2 -2 -56
25 -119 59 -797 435 -986 539 -990 546 -3 5 -5 205 -5 445 l0 436 50 28 c28
15 131 72 230 126 251 136 268 146 565 308 146 80 267 144 269 141 2 -2 4
-472 4 -1044z"/>
</g>
</svg>
